HIERARCHY
ROOT pelvis
{
  OFFSET 0 100 0
  CHANNELS 6 Xposition Yposition Zposition Zrotation Xrotation Yrotation
  JOINT pelvis_right_femur
  {
    OFFSET -10.78128 -3.44521 -0.5502486
    CHANNELS 3 Zrotation Xrotation Yrotation
    JOINT right_femur_tibia
    {
      OFFSET -0.8047443 -44.0398 -0.1307829
      CHANNELS 3 Zrotation Xrotation Yrotation
      JOINT right_tibia_foot
      {
        OFFSET 3.006224 -47.83518 -5
        CHANNELS 3 Zrotation Xrotation Yrotation
        End Site
        {
          OFFSET 0 -5 15
        }
      }
    }
  }
  JOINT pelvis_left_femur
  {
    OFFSET 10.78128 -3.44521 -0.5502486
    CHANNELS 3 Zrotation Xrotation Yrotation
    JOINT left_femur_tibia
    {
      OFFSET 0.8047443 -44.0398 -0.1307829
      CHANNELS 3 Zrotation Xrotation Yrotation
      JOINT left_tibia_foot
      {
        OFFSET -4.370144 -48.10324 -4.275266
        CHANNELS 3 Zrotation Xrotation Yrotation
        End Site
        {
          OFFSET 0 -5 15
        }
      }
    }
  }
  JOINT pelvis_spine1
  {
    OFFSET 0 6.468898 -3.129235
    CHANNELS 3 Zrotation Xrotation Yrotation
    JOINT spine1
    {
      OFFSET 0 23.15396 4.99043
      CHANNELS 3 Zrotation Xrotation Yrotation
      JOINT spine2
      {
        OFFSET 0 20.79997 -5.064912
        CHANNELS 3 Zrotation Xrotation Yrotation
        JOINT neck
        {
          OFFSET 0 14.38658 9.616178
          CHANNELS 3 Zrotation Xrotation Yrotation
          End Site
          {
            OFFSET 0 20 0
          }
        }
      }
      JOINT right_manubrium
      {
        OFFSET -5.722621 16.35077 3.967754
        CHANNELS 3 Zrotation Xrotation Yrotation
        JOINT right_clavicle
        {
          OFFSET -13.16364 1.694482 -4.693211
          CHANNELS 3 Zrotation Xrotation Yrotation
          JOINT right_humerus
          {
            OFFSET -28.5034 -0.3100689 -2.792744
            CHANNELS 3 Zrotation Xrotation Yrotation
            JOINT right_radius
            {
              OFFSET -25.15693 0.02248979 -1.271978
              CHANNELS 3 Zrotation Xrotation Yrotation
              End Site
              {
                OFFSET -15 0 0
              }
            }
          }
        }
      }
      JOINT left_manubrium
      {
        OFFSET 5.722621 16.35077 3.967754
        CHANNELS 3 Zrotation Xrotation Yrotation
        JOINT left_clavicle
        {
          OFFSET 13.16364 1.694482 -4.693211
          CHANNELS 3 Zrotation Xrotation Yrotation
          JOINT left_humerus
          {
            OFFSET 29.39168 -1.063119 -2.237045
            CHANNELS 3 Zrotation Xrotation Yrotation
            JOINT left_radius
            {
              OFFSET 24.59957 -0.9528479 0.9047498
              CHANNELS 3 Zrotation Xrotation Yrotation
              End Site
              {
                OFFSET 15 -0 -0
              }
            }
          }
        }
      }
    }
  }
}
MOTION
Frames: 15
Frame Time: 0.0416666666667
137.2364 102.7178 3197.316 1.772129 -7.716275 -1.006791 -0.1417365 2.085607 3.672157 -0 54.06386 -0 1.937342 3.579842 -5.86427 -5.233726 -6.73433 -7.517222 -0 21.25258 -0 -2.037367 -11.82302 17.47118 1.959789 -6.418937 8.058014 -1.109512 15.82344 -4.909899 2.95254 18.361 -0.9655602 -2.956287 -16.50959 4.292042 -2.883279 -27.02607 11.96993 89.7196 20.11766 -11.87705 -0 0 21.91091 -32.45328 21.2786 27.00666 -0.2213252 -21.31292 -5.833504 -86.31021 5.874506 33.0494 0 0 -26.58171 1.091095 16.62162 18.45187
137.9443 103.6687 3203.106 1.406294 -8.181217 0.1119638 0.3689299 -5.085421 3.042021 -0 53.26492 -0 1.207016 2.268038 -6.878076 -5.177841 -1.139077 -7.705196 -0 19.01311 -0 -1.797781 -13.21354 16.62523 1.982273 -6.496379 7.476473 -1.292899 15.19453 -4.954551 3.253536 18.45248 -0.8903327 -2.79787 -16.28897 4.517966 -3.322324 -25.57408 11.31729 90.98661 20.98446 -13.67283 -0 0 19.18451 -31.93608 20.70347 26.69626 0.1133406 -21.74607 -5.857901 -84.58306 5.887683 30.21164 0 0 -30.79507 1.12559 16.57836 19.15911
138.5695 104.0767 3208.636 1.212774 -8.314567 1.149872 0.5194515 -11.50849 2.31112 -0 47.78717 -0 0.4605475 0.4974642 -7.569341 -5.028866 3.679176 -7.921494 -0 16.67123 -0 -2.063631 -15.01058 15.80967 2.004794 -6.498411 6.869975 -1.422772 14.59299 -5.093525 3.506094 18.56596 -0.6704632 -2.548001 -16.24255 4.818777 -3.796953 -24.17608 10.69836 92.48637 21.65322 -15.70548 -0 0 16.42846 -30.95435 19.93727 25.80657 0.6132464 -22.35695 -5.921015 -83.00206 6.075373 27.15335 0 0 -34.88418 1.464444 16.46016 19.28031
139.0857 103.8416 3214.162 1.2664 -8.066128 2.063524 0.3409174 -16.77303 1.431292 -0 39.12924 -0 -0.04861294 -1.021161 -8.011005 -4.938564 7.750872 -8.013151 -0 14.88331 -0 -2.720098 -17.02091 14.93972 2.028138 -6.416666 6.305756 -1.482529 14.08738 -5.319816 3.685308 18.68819 -0.3402958 -2.25238 -16.39441 5.168348 -4.291604 -22.99203 10.175 94.08609 22.02904 -17.75711 -0 0 13.93576 -29.60842 19.0316 24.43225 1.214271 -23.07927 -6.004468 -81.69914 6.448619 24.17558 0 0 -38.47566 2.045911 16.25289 18.82406
139.4855 103.0496 3219.897 1.495751 -7.517185 2.840678 0.03703632 -20.80441 0.5559186 -0 29.50992 -0 -0.2085321 -2.036612 -8.354984 -4.959027 11.27903 -7.910642 -0 14.15978 -0 -3.575519 -18.84353 14.03388 2.050252 -6.257214 5.828126 -1.471306 13.71621 -5.604179 3.784119 18.8138 0.04900127 -1.954963 -16.72122 5.531428 -4.782356 -22.10885 9.782746 95.62959 22.10265 -19.61893 -0 0 11.89578 -28.0836 18.05596 22.76817 1.835075 -23.82505 -6.093646 -80.73455 6.97835 21.53129 0 0 -41.31565 2.768332 15.97224 17.91351
139.7722 101.916 3225.985 1.757943 -6.846612 3.484673 -0.1213791 -23.58483 -0.007632767 -0 21.04009 -0 -0.1020041 -2.542755 -8.732045 -5.040744 14.37133 -7.673769 -0 14.88222 -0 -4.481484 -20.03883 13.24243 2.067338 -6.037785 5.455387 -1.400302 13.48647 -5.908059 3.809766 18.94309 0.4465201 -1.686535 -17.16709 5.872303 -5.239742 -21.54069 9.529751 96.98301 21.92957 -21.14407 -0 0 10.38251 -26.57579 17.08624 21.03054 2.402639 -24.5126 -6.182338 -80.11114 7.606633 19.38488 0 0 -43.29128 3.526619 15.65592 16.72646
139.9481 100.7164 3232.49 1.907159 -6.280615 3.999947 0.1111306 -25.00186 0.02893225 -0 15.22684 -0 0.06749556 -2.690748 -9.189531 -5.063908 16.95517 -7.446623 -0 17.3058 -0 -5.415064 -20.25914 12.7271 2.075854 -5.782216 5.186289 -1.286028 13.38444 -6.197067 3.77674 19.07842 0.8133768 -1.46303 -17.66756 6.162904 -5.636556 -21.2551 9.405123 98.06239 21.58555 -22.26512 -0 0 9.384925 -25.23517 16.19115 19.39348 2.868101 -25.08588 -6.27158 -79.8008 8.270038 17.80904 0 0 -44.40456 4.238292 15.34941 15.43459
140.0133 99.72765 3239.389 1.841489 -6.026532 4.371641 0.86421 -24.89584 0.7762977 -0 12.75342 -0 0.08924132 -2.771478 -9.690153 -4.89873 18.78708 -7.355209 -0 21.51213 -0 -6.404873 -19.32159 12.5726 2.073839 -5.514405 5.009551 -1.144434 13.38885 -6.447906 3.700442 19.22166 1.126181 -1.289658 -18.16848 6.38653 -5.953999 -21.20337 9.389769 98.83387 21.13193 -22.97751 -0 0 8.850465 -24.14813 15.42181 17.96508 3.208612 -25.51786 -6.365834 -79.76713 8.918417 16.80954 0 0 -44.72211 4.85169 15.09323 14.1683
139.9749 99.17324 3246.577 1.54432 -6.201635 4.549048 2.065868 -23.22675 2.082218 -0 13.3481 -0 -0.1503203 -3.127752 -10.14806 -4.49482 19.50739 -7.402677 -0 27.36454 -0 -7.377427 -17.2863 12.79721 2.061131 -5.254264 4.912063 -0.9879263 13.48016 -6.648145 3.593492 19.3732 1.374273 -1.166194 -18.63333 6.536682 -6.182443 -21.34192 9.464785 99.29676 20.60438 -23.30845 -0 0 8.72133 -23.34887 14.81029 16.79663 3.419871 -25.80227 -6.469536 -79.97975 9.520714 16.36043 0 0 -44.32637 5.34123 14.91683 13.0099
139.8562 99.17862 3253.877 1.109005 -6.788682 4.456133 3.436816 -20.20499 3.577259 -0 15.84745 -0 -0.6038988 -3.974948 -10.45558 -3.946955 18.73972 -7.462942 -0 34.52297 -0 -8.120025 -14.52309 13.39744 2.03894 -5.016701 4.884263 -0.8252352 13.6446 -6.792214 3.464674 19.53126 1.554645 -1.090861 -19.04127 6.613344 -6.317934 -21.64191 9.61573 99.46393 20.01932 -23.2904 -0 0 8.955754 -22.84152 14.37609 15.90592 3.506772 -25.94232 -6.584836 -80.42034 10.05992 16.43358 0 0 -43.28471 5.698395 14.83846 12.00365
139.6985 99.74646 3261.084 0.7074453 -7.641209 4.040923 4.604987 -16.24346 4.841522 -0 18.637 -0 -1.092779 -5.254398 -10.46175 -3.444193 16.19322 -7.425912 -0 42.42514 -0 -8.467336 -11.66933 14.33997 2.009265 -4.812667 4.922883 -0.6626076 13.87471 -6.877374 3.319177 19.691 1.667964 -1.061965 -19.38141 6.619372 -6.357123 -22.09058 9.834035 99.34747 19.38593 -22.94607 -0 0 9.536332 -22.61848 14.13482 15.29817 3.477225 -25.94275 -6.710336 -81.08359 10.52408 17.01544 0 0 -41.63729 5.925121 14.86759 11.16812
139.5503 100.7524 3268.028 0.5018814 -8.533189 3.334496 5.268058 -11.75475 5.577016 -0 20.30859 -0 -1.428549 -6.673246 -9.978023 -3.11325 11.76708 -7.317755 -0 50.0609 -0 -8.500642 -9.407932 15.50759 1.974338 -4.650966 5.031616 -0.5051203 14.16819 -6.901453 3.159167 19.84352 1.71712 -1.077288 -19.64737 6.558356 -6.292279 -22.68758 10.11705 98.9509 18.71668 -22.28478 -0 0 10.46858 -22.67131 14.10472 14.97898 3.340632 -25.80726 -6.840344 -81.97463 10.89774 18.10942 0 0 -39.39971 6.031873 15.00678 10.50333
139.4487 101.958 3274.619 0.5496093 -9.252969 2.456733 5.343785 -7.002555 5.736214 -0 20.21449 -0 -1.526125 -7.931972 -8.946949 -2.894147 5.736471 -7.178197 -0 55.7818 -0 -8.423542 -8.124573 16.71808 1.936294 -4.540271 5.219823 -0.35818 14.52468 -6.862481 2.984905 19.9743 1.707672 -1.132147 -19.83268 6.434305 -6.108193 -23.43639 10.4664 98.26875 18.03685 -21.30882 -0 0 11.76939 -22.99426 14.30863 14.96019 3.110213 -25.54081 -6.963965 -83.09948 11.15457 19.72219 0 0 -36.58458 6.038656 15.25099 9.994668
139.407 103.0593 3280.874 0.7495991 -9.706543 1.541695 5.041997 -2.166501 5.545339 -0 18.67478 -0 -1.419653 -8.970804 -7.612785 -2.548443 -1.123967 -6.881784 -0 57.79351 -0 -8.262485 -7.703922 17.84256 1.897339 -4.490397 5.499072 -0.2292683 14.94027 -6.760113 2.797051 20.06176 1.648001 -1.21813 -19.92775 6.252738 -5.784733 -24.33129 10.88349 97.29573 17.39281 -20.02881 -0 0 13.44482 -23.58051 14.76887 15.25924 2.806424 -25.15487 -7.06424 -84.44474 11.2535 21.83379 0 0 -33.24699 5.974134 15.58334 9.619954
139.4292 103.779 3286.888 0.892249 -9.900869 0.6573515 4.717647 2.508708 5.289566 -0 16.59473 -0 -1.199247 -10.01727 -6.347638 -1.822353 -7.813844 -6.239343 -0 55.23198 -0 -7.886397 -7.70955 18.83606 1.860225 -4.510628 5.876937 -0.1282209 15.40151 -6.598896 2.599531 20.07934 1.547373 -1.324643 -19.92102 6.021928 -5.308753 -25.34453 11.36262 96.04578 16.84953 -18.48304 -0 0 15.4622 -24.41128 15.49129 15.88844 2.45701 -24.67272 -7.120065 -85.9525 11.14631 24.36192 0 0 -29.53659 5.867495 15.96937 9.362605
